<svg xmlns="http://www.w3.org/2000/svg" viewBox="0 0 400 400"><path fill="#007ACC" d="M0 200V0h400v400H0M322.4 147.4c8.3 2.1 14.6 5.8 20.5 11.9 3 3.2 7.5 9.2 7.7 10.2.1.3-13.9 9.8-22.3 15.1-.3.2-1.5-1.1-2.9-3.1-4.2-6-8.5-8.6-15.3-9.2-9.8-.9-16.1 4.5-16.1 13.6 0 2.6.4 4.2 1.3 6.1 2 4.2 5.7 6.7 17.4 11.9 21.6 9.7 30.8 16.1 36.5 25.4 6.4 10.4 7.8 27 3.4 39.4-4.9 13.7-17 23-34.6 26.4-5.4 1.1-18.2 1-24.3-.2-12.8-2.4-24.9-9.3-32.2-18.4-3-3.7-8.7-13.3-8.4-14.1.2-.2 1.4-.9 2.9-1.5s7-4 13.3-7.7l11.5-6.7 2.4 3.5c3.4 5.1 10.8 12.1 15.3 14.5 12.8 6.7 30.4 5.8 39.1-2 3.7-3.3 5.3-6.8 5.3-11.6 0-4.5-.6-6.5-3-9.8-3.1-4.3-9.4-7.9-27.4-15.7-20.6-8.9-29.5-14.4-35.9-22.1-4-4.9-7.8-12.6-9.1-18.6-1-4.6-1.2-16.2-.4-21 3.8-21.4 22.7-36.3 48.4-38.1 7.6-.5 15.8.1 23.1 1.7zm-84.4 49.8v14.8H196v124h-29.3V212h-42v-14.5c0-8.1.1-14.8.3-14.9.1-.1 25.8-.2 56.9-.2h56.6v14.8z"/></svg>